# xmcd CD database file
# Copyright (C) 1997 Ti Kan
# 
# Track frame offsets:
#     150
#     18322
#     41187
#     54447
#     69532
#     83510
#     100425
#     116772
#     140557
#     156612
#     173597
#     189615
#     206945
#     225055
# 
# Disc length: 3220 seconds
# 
# Revision: 1
# Processed by: cddbd v1.4b41PL1 Copyright (c) Steve Scherf et al.
# Submitted via: DiscPlay 4.0.3
# 
DISCID=c00c920e
DTITLE=Jo Jo Zep and Falcons - The Sound Of
DYEAR=1900
DGENRE=
TTITLE0=The Honeydripper
TTITLE1=Dancing Shoes
TTITLE2=Security
TTITLE3=I Will Return
TTITLE4=All I Wanna Do
TTITLE5=Sweet
TTITLE6=So Young
TTITLE7=Losing Game
TTITLE8=Shape I'm In
TTITLE9=Hit And Run
TTITLE10=Puppet On A String
TTITLE11=Walk On By
TTITLE12=Taxi Mary
TTITLE13=Sherrie
EXTD=
EXTT0=
EXTT1=
EXTT2=
EXTT3=
EXTT4=
EXTT5=
EXTT6=
EXTT7=
EXTT8=
EXTT9=
EXTT10=
EXTT11=
EXTT12=
EXTT13=
PLAYORDER=
